<?xml version="1.0" standalone="no"?>
<!DOCTYPE svg PUBLIC "-//W3C//DTD SVG 20010904//EN"
 "http://www.w3.org/TR/2001/REC-SVG-20010904/DTD/svg10.dtd">
<svg version="1.0" xmlns="http://www.w3.org/2000/svg"
 width="141.000000pt" height="141.000000pt" viewBox="0 0 141.000000 141.000000"
 preserveAspectRatio="xMidYMid meet">
<metadata>
Created by potrace 1.16, written by Peter Selinger 2001-2019
</metadata>
<g transform="translate(0.000000,141.000000) scale(0.100000,-0.100000)"
fill="#000000" stroke="none">
<path d="M119 1377 c-24 -13 -57 -43 -74 -66 l-30 -43 0 -563 0 -563 30 -43
c17 -23 50 -53 74 -66 l44 -23 542 0 542 0 44 23 c24 13 58 43 74 66 l30 43 0
563 0 563 -30 43 c-16 23 -50 53 -74 66 l-44 23 -542 0 -542 0 -44 -23z m957
-336 c40 -5 97 -16 128 -26 l56 -18 0 -58 c0 -33 -3 -59 -6 -59 -4 0 -34 13
-68 30 -162 78 -348 45 -348 -62 0 -77 28 -96 187 -127 146 -29 213 -62 243
-121 51 -99 6 -219 -103 -275 -56 -28 -65 -30 -179 -30 -100 0 -133 4 -193 24
l-73 24 0 63 c0 35 4 64 10 64 5 0 30 -13 56 -30 127 -80 321 -80 378 1 25 36
21 92 -9 121 -28 28 -64 40 -190 63 -164 29 -234 90 -235 202 0 28 5 64 11 80
23 62 103 117 190 132 71 11 63 11 145 2z m-816 -166 c52 -85 97 -155 100
-155 3 0 47 70 99 155 l94 155 55 0 c39 0 53 -3 49 -13 -2 -6 -59 -99 -126
-204 l-121 -192 0 -161 0 -160 -50 0 -50 0 0 152 0 151 -117 191 c-64 105
-123 201 -131 214 -14 22 -14 22 44 22 l59 0 95 -155z"/>
</g>
</svg>
